<?xml version="1.0" standalone="no"?>
<svg xmlns="http://www.w3.org/2000/svg" width="500" height="500"><defs><clipPath id="clip-path-dot-color"><rect x="18" y="146" width="16" height="16" transform="rotate(0,26,154)"/><rect x="18" y="178" width="16" height="16" transform="rotate(0,26,186)"/><rect x="18" y="210" width="16" height="16" transform="rotate(0,26,218)"/><rect x="18" y="226" width="16" height="16" transform="rotate(0,26,234)"/><rect x="18" y="242" width="16" height="16" transform="rotate(0,26,250)"/><rect x="18" y="274" width="16" height="16" transform="rotate(0,26,282)"/><rect x="18" y="306" width="16" height="16" transform="rotate(0,26,314)"/><rect x="34" y="162" width="16" height="16" transform="rotate(0,42,170)"/><rect x="34" y="178" width="16" height="16" transform="rotate(0,42,186)"/><rect x="34" y="194" width="16" height="16" transform="rotate(0,42,202)"/><rect x="34" y="226" width="16" height="16" transform="rotate(0,42,234)"/><rect x="34" y="258" width="16" height="16" transform="rotate(0,42,266)"/><rect x="34" y="274" width="16" height="16" transform="rotate(0,42,282)"/><rect x="34" y="290" width="16" height="16" transform="rotate(0,42,298)"/><rect x="34" y="306" width="16" height="16" transform="rotate(0,42,314)"/><rect x="34" y="322" width="16" height="16" transform="rotate(0,42,330)"/><rect x="50" y="146" width="16" height="16" transform="rotate(0,58,154)"/><rect x="50" y="162" width="16" height="16" transform="rotate(0,58,170)"/><rect x="50" y="210" width="16" height="16" transform="rotate(0,58,218)"/><rect x="50" y="274" width="16" height="16" transform="rotate(0,58,282)"/><rect x="50" y="290" width="16" height="16" transform="rotate(0,58,298)"/><rect x="50" y="306" width="16" height="16" transform="rotate(0,58,314)"/><rect x="50" y="322" width="16" height="16" transform="rotate(0,58,330)"/><rect x="50" y="338" width="16" height="16" transform="rotate(0,58,346)"/><rect x="66" y="146" width="16" height="16" transform="rotate(0,74,154)"/><rect x="66" y="162" width="16" height="16" transform="rotate(0,74,170)"/><rect x="66" y="194" width="16" height="16" transform="rotate(0,74,202)"/><rect x="66" y="210" width="16" height="16" transform="rotate(0,74,218)"/><rect x="66" y="226" width="16" height="16" transform="rotate(0,74,234)"/><rect x="66" y="258" width="16" height="16" transform="rotate(0,74,266)"/><rect x="66" y="306" width="16" height="16" transform="rotate(0,74,314)"/><rect x="82" y="178" width="16" height="16" transform="rotate(0,90,186)"/><rect x="82" y="194" width="16" height="16" transform="rotate(0,90,202)"/><rect x="82" y="210" width="16" height="16" transform="rotate(0,90,218)"/><rect x="82" y="226" width="16" height="16" transform="rotate(0,90,234)"/><rect x="82" y="258" width="16" height="16" transform="rotate(0,90,266)"/><rect x="82" y="274" width="16" height="16" transform="rotate(0,90,282)"/><rect x="82" y="306" width="16" height="16" transform="rotate(0,90,314)"/><rect x="98" y="146" width="16" height="16" transform="rotate(0,106,154)"/><rect x="98" y="178" width="16" height="16" transform="rotate(0,106,186)"/><rect x="98" y="210" width="16" height="16" transform="rotate(0,106,218)"/><rect x="98" y="274" width="16" height="16" transform="rotate(0,106,282)"/><rect x="98" y="322" width="16" height="16" transform="rotate(0,106,330)"/><rect x="114" y="146" width="16" height="16" transform="rotate(0,122,154)"/><rect x="114" y="178" width="16" height="16" transform="rotate(0,122,186)"/><rect x="114" y="210" width="16" height="16" transform="rotate(0,122,218)"/><rect x="114" y="242" width="16" height="16" transform="rotate(0,122,250)"/><rect x="114" y="274" width="16" height="16" transform="rotate(0,122,282)"/><rect x="114" y="306" width="16" height="16" transform="rotate(0,122,314)"/><rect x="114" y="338" width="16" height="16" transform="rotate(0,122,346)"/><rect x="130" y="146" width="16" height="16" transform="rotate(0,138,154)"/><rect x="130" y="178" width="16" height="16" transform="rotate(0,138,186)"/><rect x="130" y="194" width="16" height="16" transform="rotate(0,138,202)"/><rect x="130" y="210" width="16" height="16" transform="rotate(0,138,218)"/><rect x="130" y="226" width="16" height="16" transform="rotate(0,138,234)"/><rect x="130" y="242" width="16" height="16" transform="rotate(0,138,250)"/><rect x="130" y="274" width="16" height="16" transform="rotate(0,138,282)"/><rect x="130" y="290" width="16" height="16" transform="rotate(0,138,298)"/><rect x="130" y="306" width="16" height="16" transform="rotate(0,138,314)"/><rect x="146" y="34" width="16" height="16" transform="rotate(0,154,42)"/><rect x="146" y="66" width="16" height="16" transform="rotate(0,154,74)"/><rect x="146" y="98" width="16" height="16" transform="rotate(0,154,106)"/><rect x="146" y="114" width="16" height="16" transform="rotate(0,154,122)"/><rect x="146" y="130" width="16" height="16" transform="rotate(0,154,138)"/><rect x="146" y="146" width="16" height="16" transform="rotate(0,154,154)"/><rect x="146" y="162" width="16" height="16" transform="rotate(0,154,170)"/><rect x="146" y="194" width="16" height="16" transform="rotate(0,154,202)"/><rect x="146" y="210" width="16" height="16" transform="rotate(0,154,218)"/><rect x="146" y="258" width="16" height="16" transform="rotate(0,154,266)"/><rect x="146" y="290" width="16" height="16" transform="rotate(0,154,298)"/><rect x="146" y="306" width="16" height="16" transform="rotate(0,154,314)"/><rect x="146" y="338" width="16" height="16" transform="rotate(0,154,346)"/><rect x="146" y="354" width="16" height="16" transform="rotate(0,154,362)"/><rect x="146" y="370" width="16" height="16" transform="rotate(0,154,378)"/><rect x="146" y="386" width="16" height="16" transform="rotate(0,154,394)"/><rect x="146" y="418" width="16" height="16" transform="rotate(0,154,426)"/><rect x="146" y="434" width="16" height="16" transform="rotate(0,154,442)"/><rect x="146" y="466" width="16" height="16" transform="rotate(0,154,474)"/><rect x="162" y="18" width="16" height="16" transform="rotate(0,170,26)"/><rect x="162" y="34" width="16" height="16" transform="rotate(0,170,42)"/><rect x="162" y="98" width="16" height="16" transform="rotate(0,170,106)"/><rect x="162" y="130" width="16" height="16" transform="rotate(0,170,138)"/><rect x="162" y="146" width="16" height="16" transform="rotate(0,170,154)"/><rect x="162" y="194" width="16" height="16" transform="rotate(0,170,202)"/><rect x="162" y="242" width="16" height="16" transform="rotate(0,170,250)"/><rect x="162" y="258" width="16" height="16" transform="rotate(0,170,266)"/><rect x="162" y="306" width="16" height="16" transform="rotate(0,170,314)"/><rect x="162" y="322" width="16" height="16" transform="rotate(0,170,330)"/><rect x="162" y="354" width="16" height="16" transform="rotate(0,170,362)"/><rect x="162" y="370" width="16" height="16" transform="rotate(0,170,378)"/><rect x="162" y="434" width="16" height="16" transform="rotate(0,170,442)"/><rect x="162" y="466" width="16" height="16" transform="rotate(0,170,474)"/><rect x="178" y="18" width="16" height="16" transform="rotate(0,186,26)"/><rect x="178" y="34" width="16" height="16" transform="rotate(0,186,42)"/><rect x="178" y="66" width="16" height="16" transform="rotate(0,186,74)"/><rect x="178" y="82" width="16" height="16" transform="rotate(0,186,90)"/><rect x="178" y="114" width="16" height="16" transform="rotate(0,186,122)"/><rect x="178" y="162" width="16" height="16" transform="rotate(0,186,170)"/><rect x="178" y="194" width="16" height="16" transform="rotate(0,186,202)"/><rect x="178" y="210" width="16" height="16" transform="rotate(0,186,218)"/><rect x="178" y="226" width="16" height="16" transform="rotate(0,186,234)"/><rect x="178" y="242" width="16" height="16" transform="rotate(0,186,250)"/><rect x="178" y="306" width="16" height="16" transform="rotate(0,186,314)"/><rect x="178" y="322" width="16" height="16" transform="rotate(0,186,330)"/><rect x="178" y="370" width="16" height="16" transform="rotate(0,186,378)"/><rect x="178" y="402" width="16" height="16" transform="rotate(0,186,410)"/><rect x="178" y="418" width="16" height="16" transform="rotate(0,186,426)"/><rect x="178" y="450" width="16" height="16" transform="rotate(0,186,458)"/><rect x="194" y="34" width="16" height="16" transform="rotate(0,202,42)"/><rect x="194" y="50" width="16" height="16" transform="rotate(0,202,58)"/><rect x="194" y="66" width="16" height="16" transform="rotate(0,202,74)"/><rect x="194" y="146" width="16" height="16" transform="rotate(0,202,154)"/><rect x="194" y="162" width="16" height="16" transform="rotate(0,202,170)"/><rect x="194" y="210" width="16" height="16" transform="rotate(0,202,218)"/><rect x="194" y="242" width="16" height="16" transform="rotate(0,202,250)"/><rect x="194" y="306" width="16" height="16" transform="rotate(0,202,314)"/><rect x="194" y="322" width="16" height="16" transform="rotate(0,202,330)"/><rect x="194" y="338" width="16" height="16" transform="rotate(0,202,346)"/><rect x="194" y="354" width="16" height="16" transform="rotate(0,202,362)"/><rect x="194" y="370" width="16" height="16" transform="rotate(0,202,378)"/><rect x="194" y="386" width="16" height="16" transform="rotate(0,202,394)"/><rect x="194" y="434" width="16" height="16" transform="rotate(0,202,442)"/><rect x="194" y="450" width="16" height="16" transform="rotate(0,202,458)"/><rect x="210" y="50" width="16" height="16" transform="rotate(0,218,58)"/><rect x="210" y="98" width="16" height="16" transform="rotate(0,218,106)"/><rect x="210" y="114" width="16" height="16" transform="rotate(0,218,122)"/><rect x="210" y="130" width="16" height="16" transform="rotate(0,218,138)"/><rect x="210" y="194" width="16" height="16" transform="rotate(0,218,202)"/><rect x="210" y="210" width="16" height="16" transform="rotate(0,218,218)"/><rect x="210" y="242" width="16" height="16" transform="rotate(0,218,250)"/><rect x="210" y="258" width="16" height="16" transform="rotate(0,218,266)"/><rect x="210" y="274" width="16" height="16" transform="rotate(0,218,282)"/><rect x="210" y="290" width="16" height="16" transform="rotate(0,218,298)"/><rect x="210" y="338" width="16" height="16" transform="rotate(0,218,346)"/><rect x="210" y="370" width="16" height="16" transform="rotate(0,218,378)"/><rect x="210" y="386" width="16" height="16" transform="rotate(0,218,394)"/><rect x="226" y="18" width="16" height="16" transform="rotate(0,234,26)"/><rect x="226" y="50" width="16" height="16" transform="rotate(0,234,58)"/><rect x="226" y="66" width="16" height="16" transform="rotate(0,234,74)"/><rect x="226" y="82" width="16" height="16" transform="rotate(0,234,90)"/><rect x="226" y="146" width="16" height="16" transform="rotate(0,234,154)"/><rect x="226" y="162" width="16" height="16" transform="rotate(0,234,170)"/><rect x="226" y="178" width="16" height="16" transform="rotate(0,234,186)"/><rect x="226" y="194" width="16" height="16" transform="rotate(0,234,202)"/><rect x="226" y="226" width="16" height="16" transform="rotate(0,234,234)"/><rect x="226" y="258" width="16" height="16" transform="rotate(0,234,266)"/><rect x="226" y="322" width="16" height="16" transform="rotate(0,234,330)"/><rect x="226" y="338" width="16" height="16" transform="rotate(0,234,346)"/><rect x="226" y="354" width="16" height="16" transform="rotate(0,234,362)"/><rect x="226" y="386" width="16" height="16" transform="rotate(0,234,394)"/><rect x="226" y="418" width="16" height="16" transform="rotate(0,234,426)"/><rect x="226" y="450" width="16" height="16" transform="rotate(0,234,458)"/><rect x="242" y="18" width="16" height="16" transform="rotate(0,250,26)"/><rect x="242" y="50" width="16" height="16" transform="rotate(0,250,58)"/><rect x="242" y="66" width="16" height="16" transform="rotate(0,250,74)"/><rect x="242" y="82" width="16" height="16" transform="rotate(0,250,90)"/><rect x="242" y="98" width="16" height="16" transform="rotate(0,250,106)"/><rect x="242" y="114" width="16" height="16" transform="rotate(0,250,122)"/><rect x="242" y="146" width="16" height="16" transform="rotate(0,250,154)"/><rect x="242" y="178" width="16" height="16" transform="rotate(0,250,186)"/><rect x="242" y="274" width="16" height="16" transform="rotate(0,250,282)"/><rect x="242" y="370" width="16" height="16" transform="rotate(0,250,378)"/><rect x="242" y="466" width="16" height="16" transform="rotate(0,250,474)"/><rect x="258" y="34" width="16" height="16" transform="rotate(0,266,42)"/><rect x="258" y="50" width="16" height="16" transform="rotate(0,266,58)"/><rect x="258" y="82" width="16" height="16" transform="rotate(0,266,90)"/><rect x="258" y="98" width="16" height="16" transform="rotate(0,266,106)"/><rect x="258" y="210" width="16" height="16" transform="rotate(0,266,218)"/><rect x="258" y="258" width="16" height="16" transform="rotate(0,266,266)"/><rect x="258" y="370" width="16" height="16" transform="rotate(0,266,378)"/><rect x="258" y="386" width="16" height="16" transform="rotate(0,266,394)"/><rect x="258" y="450" width="16" height="16" transform="rotate(0,266,458)"/><rect x="258" y="466" width="16" height="16" transform="rotate(0,266,474)"/><rect x="274" y="18" width="16" height="16" transform="rotate(0,282,26)"/><rect x="274" y="114" width="16" height="16" transform="rotate(0,282,122)"/><rect x="274" y="146" width="16" height="16" transform="rotate(0,282,154)"/><rect x="274" y="162" width="16" height="16" transform="rotate(0,282,170)"/><rect x="274" y="178" width="16" height="16" transform="rotate(0,282,186)"/><rect x="274" y="194" width="16" height="16" transform="rotate(0,282,202)"/><rect x="274" y="226" width="16" height="16" transform="rotate(0,282,234)"/><rect x="274" y="242" width="16" height="16" transform="rotate(0,282,250)"/><rect x="274" y="274" width="16" height="16" transform="rotate(0,282,282)"/><rect x="274" y="322" width="16" height="16" transform="rotate(0,282,330)"/><rect x="274" y="338" width="16" height="16" transform="rotate(0,282,346)"/><rect x="274" y="386" width="16" height="16" transform="rotate(0,282,394)"/><rect x="274" y="466" width="16" height="16" transform="rotate(0,282,474)"/><rect x="290" y="34" width="16" height="16" transform="rotate(0,298,42)"/><rect x="290" y="50" width="16" height="16" transform="rotate(0,298,58)"/><rect x="290" y="82" width="16" height="16" transform="rotate(0,298,90)"/><rect x="290" y="130" width="16" height="16" transform="rotate(0,298,138)"/><rect x="290" y="146" width="16" height="16" transform="rotate(0,298,154)"/><rect x="290" y="178" width="16" height="16" transform="rotate(0,298,186)"/><rect x="290" y="258" width="16" height="16" transform="rotate(0,298,266)"/><rect x="290" y="290" width="16" height="16" transform="rotate(0,298,298)"/><rect x="290" y="322" width="16" height="16" transform="rotate(0,298,330)"/><rect x="290" y="354" width="16" height="16" transform="rotate(0,298,362)"/><rect x="290" y="370" width="16" height="16" transform="rotate(0,298,378)"/><rect x="290" y="386" width="16" height="16" transform="rotate(0,298,394)"/><rect x="290" y="434" width="16" height="16" transform="rotate(0,298,442)"/><rect x="290" y="450" width="16" height="16" transform="rotate(0,298,458)"/><rect x="290" y="466" width="16" height="16" transform="rotate(0,298,474)"/><rect x="306" y="18" width="16" height="16" transform="rotate(0,314,26)"/><rect x="306" y="66" width="16" height="16" transform="rotate(0,314,74)"/><rect x="306" y="114" width="16" height="16" transform="rotate(0,314,122)"/><rect x="306" y="130" width="16" height="16" transform="rotate(0,314,138)"/><rect x="306" y="162" width="16" height="16" transform="rotate(0,314,170)"/><rect x="306" y="210" width="16" height="16" transform="rotate(0,314,218)"/><rect x="306" y="242" width="16" height="16" transform="rotate(0,314,250)"/><rect x="306" y="290" width="16" height="16" transform="rotate(0,314,298)"/><rect x="306" y="322" width="16" height="16" transform="rotate(0,314,330)"/><rect x="306" y="338" width="16" height="16" transform="rotate(0,314,346)"/><rect x="306" y="354" width="16" height="16" transform="rotate(0,314,362)"/><rect x="306" y="418" width="16" height="16" transform="rotate(0,314,426)"/><rect x="306" y="450" width="16" height="16" transform="rotate(0,314,458)"/><rect x="306" y="466" width="16" height="16" transform="rotate(0,314,474)"/><rect x="322" y="50" width="16" height="16" transform="rotate(0,330,58)"/><rect x="322" y="66" width="16" height="16" transform="rotate(0,330,74)"/><rect x="322" y="162" width="16" height="16" transform="rotate(0,330,170)"/><rect x="322" y="178" width="16" height="16" transform="rotate(0,330,186)"/><rect x="322" y="242" width="16" height="16" transform="rotate(0,330,250)"/><rect x="322" y="258" width="16" height="16" transform="rotate(0,330,266)"/><rect x="322" y="274" width="16" height="16" transform="rotate(0,330,282)"/><rect x="322" y="290" width="16" height="16" transform="rotate(0,330,298)"/><rect x="322" y="306" width="16" height="16" transform="rotate(0,330,314)"/><rect x="322" y="322" width="16" height="16" transform="rotate(0,330,330)"/><rect x="322" y="338" width="16" height="16" transform="rotate(0,330,346)"/><rect x="322" y="402" width="16" height="16" transform="rotate(0,330,410)"/><rect x="322" y="418" width="16" height="16" transform="rotate(0,330,426)"/><rect x="322" y="450" width="16" height="16" transform="rotate(0,330,458)"/><rect x="322" y="466" width="16" height="16" transform="rotate(0,330,474)"/><rect x="338" y="18" width="16" height="16" transform="rotate(0,346,26)"/><rect x="338" y="50" width="16" height="16" transform="rotate(0,346,58)"/><rect x="338" y="66" width="16" height="16" transform="rotate(0,346,74)"/><rect x="338" y="82" width="16" height="16" transform="rotate(0,346,90)"/><rect x="338" y="98" width="16" height="16" transform="rotate(0,346,106)"/><rect x="338" y="114" width="16" height="16" transform="rotate(0,346,122)"/><rect x="338" y="162" width="16" height="16" transform="rotate(0,346,170)"/><rect x="338" y="194" width="16" height="16" transform="rotate(0,346,202)"/><rect x="338" y="210" width="16" height="16" transform="rotate(0,346,218)"/><rect x="338" y="242" width="16" height="16" transform="rotate(0,346,250)"/><rect x="338" y="274" width="16" height="16" transform="rotate(0,346,282)"/><rect x="338" y="322" width="16" height="16" transform="rotate(0,346,330)"/><rect x="338" y="338" width="16" height="16" transform="rotate(0,346,346)"/><rect x="338" y="354" width="16" height="16" transform="rotate(0,346,362)"/><rect x="338" y="370" width="16" height="16" transform="rotate(0,346,378)"/><rect x="338" y="386" width="16" height="16" transform="rotate(0,346,394)"/><rect x="338" y="402" width="16" height="16" transform="rotate(0,346,410)"/><rect x="338" y="418" width="16" height="16" transform="rotate(0,346,426)"/><rect x="338" y="434" width="16" height="16" transform="rotate(0,346,442)"/><rect x="354" y="146" width="16" height="16" transform="rotate(0,362,154)"/><rect x="354" y="162" width="16" height="16" transform="rotate(0,362,170)"/><rect x="354" y="178" width="16" height="16" transform="rotate(0,362,186)"/><rect x="354" y="210" width="16" height="16" transform="rotate(0,362,218)"/><rect x="354" y="274" width="16" height="16" transform="rotate(0,362,282)"/><rect x="354" y="290" width="16" height="16" transform="rotate(0,362,298)"/><rect x="354" y="306" width="16" height="16" transform="rotate(0,362,314)"/><rect x="354" y="338" width="16" height="16" transform="rotate(0,362,346)"/><rect x="354" y="402" width="16" height="16" transform="rotate(0,362,410)"/><rect x="354" y="466" width="16" height="16" transform="rotate(0,362,474)"/><rect x="370" y="146" width="16" height="16" transform="rotate(0,378,154)"/><rect x="370" y="194" width="16" height="16" transform="rotate(0,378,202)"/><rect x="370" y="210" width="16" height="16" transform="rotate(0,378,218)"/><rect x="370" y="226" width="16" height="16" transform="rotate(0,378,234)"/><rect x="370" y="274" width="16" height="16" transform="rotate(0,378,282)"/><rect x="370" y="306" width="16" height="16" transform="rotate(0,378,314)"/><rect x="370" y="338" width="16" height="16" transform="rotate(0,378,346)"/><rect x="370" y="370" width="16" height="16" transform="rotate(0,378,378)"/><rect x="370" y="402" width="16" height="16" transform="rotate(0,378,410)"/><rect x="370" y="418" width="16" height="16" transform="rotate(0,378,426)"/><rect x="370" y="434" width="16" height="16" transform="rotate(0,378,442)"/><rect x="370" y="450" width="16" height="16" transform="rotate(0,378,458)"/><rect x="386" y="146" width="16" height="16" transform="rotate(0,394,154)"/><rect x="386" y="194" width="16" height="16" transform="rotate(0,394,202)"/><rect x="386" y="226" width="16" height="16" transform="rotate(0,394,234)"/><rect x="386" y="242" width="16" height="16" transform="rotate(0,394,250)"/><rect x="386" y="258" width="16" height="16" transform="rotate(0,394,266)"/><rect x="386" y="274" width="16" height="16" transform="rotate(0,394,282)"/><rect x="386" y="306" width="16" height="16" transform="rotate(0,394,314)"/><rect x="386" y="338" width="16" height="16" transform="rotate(0,394,346)"/><rect x="386" y="402" width="16" height="16" transform="rotate(0,394,410)"/><rect x="386" y="434" width="16" height="16" transform="rotate(0,394,442)"/><rect x="402" y="194" width="16" height="16" transform="rotate(0,410,202)"/><rect x="402" y="226" width="16" height="16" transform="rotate(0,410,234)"/><rect x="402" y="242" width="16" height="16" transform="rotate(0,410,250)"/><rect x="402" y="274" width="16" height="16" transform="rotate(0,410,282)"/><rect x="402" y="306" width="16" height="16" transform="rotate(0,410,314)"/><rect x="402" y="338" width="16" height="16" transform="rotate(0,410,346)"/><rect x="402" y="354" width="16" height="16" transform="rotate(0,410,362)"/><rect x="402" y="370" width="16" height="16" transform="rotate(0,410,378)"/><rect x="402" y="386" width="16" height="16" transform="rotate(0,410,394)"/><rect x="402" y="402" width="16" height="16" transform="rotate(0,410,410)"/><rect x="402" y="418" width="16" height="16" transform="rotate(0,410,426)"/><rect x="418" y="146" width="16" height="16" transform="rotate(0,426,154)"/><rect x="418" y="162" width="16" height="16" transform="rotate(0,426,170)"/><rect x="418" y="178" width="16" height="16" transform="rotate(0,426,186)"/><rect x="418" y="226" width="16" height="16" transform="rotate(0,426,234)"/><rect x="418" y="242" width="16" height="16" transform="rotate(0,426,250)"/><rect x="418" y="258" width="16" height="16" transform="rotate(0,426,266)"/><rect x="418" y="290" width="16" height="16" transform="rotate(0,426,298)"/><rect x="418" y="306" width="16" height="16" transform="rotate(0,426,314)"/><rect x="418" y="322" width="16" height="16" transform="rotate(0,426,330)"/><rect x="418" y="338" width="16" height="16" transform="rotate(0,426,346)"/><rect x="418" y="354" width="16" height="16" transform="rotate(0,426,362)"/><rect x="418" y="370" width="16" height="16" transform="rotate(0,426,378)"/><rect x="418" y="402" width="16" height="16" transform="rotate(0,426,410)"/><rect x="418" y="418" width="16" height="16" transform="rotate(0,426,426)"/><rect x="418" y="466" width="16" height="16" transform="rotate(0,426,474)"/><rect x="434" y="178" width="16" height="16" transform="rotate(0,442,186)"/><rect x="434" y="258" width="16" height="16" transform="rotate(0,442,266)"/><rect x="434" y="274" width="16" height="16" transform="rotate(0,442,282)"/><rect x="434" y="290" width="16" height="16" transform="rotate(0,442,298)"/><rect x="434" y="306" width="16" height="16" transform="rotate(0,442,314)"/><rect x="434" y="322" width="16" height="16" transform="rotate(0,442,330)"/><rect x="434" y="338" width="16" height="16" transform="rotate(0,442,346)"/><rect x="434" y="402" width="16" height="16" transform="rotate(0,442,410)"/><rect x="434" y="466" width="16" height="16" transform="rotate(0,442,474)"/><rect x="450" y="146" width="16" height="16" transform="rotate(0,458,154)"/><rect x="450" y="178" width="16" height="16" transform="rotate(0,458,186)"/><rect x="450" y="226" width="16" height="16" transform="rotate(0,458,234)"/><rect x="450" y="242" width="16" height="16" transform="rotate(0,458,250)"/><rect x="450" y="274" width="16" height="16" transform="rotate(0,458,282)"/><rect x="450" y="290" width="16" height="16" transform="rotate(0,458,298)"/><rect x="450" y="306" width="16" height="16" transform="rotate(0,458,314)"/><rect x="450" y="322" width="16" height="16" transform="rotate(0,458,330)"/><rect x="450" y="370" width="16" height="16" transform="rotate(0,458,378)"/><rect x="450" y="386" width="16" height="16" transform="rotate(0,458,394)"/><rect x="450" y="418" width="16" height="16" transform="rotate(0,458,426)"/><rect x="450" y="450" width="16" height="16" transform="rotate(0,458,458)"/><rect x="466" y="178" width="16" height="16" transform="rotate(0,474,186)"/><rect x="466" y="210" width="16" height="16" transform="rotate(0,474,218)"/><rect x="466" y="242" width="16" height="16" transform="rotate(0,474,250)"/><rect x="466" y="258" width="16" height="16" transform="rotate(0,474,266)"/><rect x="466" y="274" width="16" height="16" transform="rotate(0,474,282)"/><rect x="466" y="290" width="16" height="16" transform="rotate(0,474,298)"/><rect x="466" y="322" width="16" height="16" transform="rotate(0,474,330)"/><rect x="466" y="338" width="16" height="16" transform="rotate(0,474,346)"/><rect x="466" y="354" width="16" height="16" transform="rotate(0,474,362)"/><rect x="466" y="370" width="16" height="16" transform="rotate(0,474,378)"/><rect x="466" y="402" width="16" height="16" transform="rotate(0,474,410)"/><rect x="466" y="418" width="16" height="16" transform="rotate(0,474,426)"/><rect x="466" y="450" width="16" height="16" transform="rotate(0,474,458)"/></clipPath><clipPath id="clip-path-corners-square-color-0-0"><path clip-rule="evenodd" d="M 18 18v 112h 112v -112zM 34 34h 80v 80h -80z" transform="rotate(0,74,74)"/></clipPath><clipPath id="clip-path-corners-dot-color-0-0"><rect x="50" y="50" width="48" height="48" transform="rotate(0,74,74)"/></clipPath><clipPath id="clip-path-corners-square-color-1-0"><path clip-rule="evenodd" d="M 370 18v 112h 112v -112zM 386 34h 80v 80h -80z" transform="rotate(90,426,74)"/></clipPath><clipPath id="clip-path-corners-dot-color-1-0"><rect x="402" y="50" width="48" height="48" transform="rotate(90,426,74)"/></clipPath><clipPath id="clip-path-corners-square-color-0-1"><path clip-rule="evenodd" d="M 18 370v 112h 112v -112zM 34 386h 80v 80h -80z" transform="rotate(-90,74,426)"/></clipPath><clipPath id="clip-path-corners-dot-color-0-1"><rect x="50" y="402" width="48" height="48" transform="rotate(-90,74,426)"/></clipPath></defs><rect x="0" y="0" height="500" width="500" clip-path="url('#clip-path-background-color')" fill="#fff"/><rect x="0" y="0" height="500" width="500" clip-path="url('#clip-path-dot-color')" fill="#000000"/><rect x="18" y="18" height="112" width="112" clip-path="url('#clip-path-corners-square-color-0-0')" fill="#000000"/><rect x="50" y="50" height="48" width="48" clip-path="url('#clip-path-corners-dot-color-0-0')" fill="#000000"/><rect x="370" y="18" height="112" width="112" clip-path="url('#clip-path-corners-square-color-1-0')" fill="#000000"/><rect x="402" y="50" height="48" width="48" clip-path="url('#clip-path-corners-dot-color-1-0')" fill="#000000"/><rect x="18" y="370" height="112" width="112" clip-path="url('#clip-path-corners-square-color-0-1')" fill="#000000"/><rect x="50" y="402" height="48" width="48" clip-path="url('#clip-path-corners-dot-color-0-1')" fill="#000000"/></svg>